<?xml version="1.0" encoding="UTF-8" standalone="no"?>
<svg
   width="141"
   height="146"
   version="1.1"
   id="svg4"
   sodipodi:docname="calendar_icon_g_inkscape.svg"
   inkscape:version="1.1.2 (b8e25be833, 2022-02-05)"
   xmlns:inkscape="http://www.inkscape.org/namespaces/inkscape"
   xmlns:sodipodi="http://sodipodi.sourceforge.net/DTD/sodipodi-0.dtd"
   xmlns="http://www.w3.org/2000/svg"
   xmlns:svg="http://www.w3.org/2000/svg">
  <defs
     id="defs8" />
  <sodipodi:namedview
     id="namedview6"
     pagecolor="#ffffff"
     bordercolor="#666666"
     borderopacity="1.0"
     inkscape:pageshadow="2"
     inkscape:pageopacity="0.0"
     inkscape:pagecheckerboard="0"
     showgrid="false"
     inkscape:snap-bbox="true"
     inkscape:snap-bbox-midpoints="true"
     inkscape:snap-object-midpoints="true"
     inkscape:snap-grids="false"
     inkscape:snap-center="true"
     inkscape:zoom="5.9794521"
     inkscape:cx="37.545246"
     inkscape:cy="73.083619"
     inkscape:window-width="2560"
     inkscape:window-height="1369"
     inkscape:window-x="-8"
     inkscape:window-y="-8"
     inkscape:window-maximized="1"
     inkscape:current-layer="svg4">
    <inkscape:grid
       type="xygrid"
       id="grid36647" />
  </sodipodi:namedview>
  <path
     d="M13.3,126.4V37.4c0-2.4,.9-4.5,2.6-6.3c1.7-1.8,3.8-2.6 6.2-2.6h8.8v-6.7c0-3.1,1.1-5.7,3.2-7.9c2.2-2.2,4.7-3.3,7.8-3.3h4.4c3,0 5.6,1.1,7.8,3.3c2.2,2.2,3.2,4.8,3.2,7.9v6.7h26.4v-6.7c0-3.1,1.1-5.7 3.2-7.9c2.2-2.2,4.7-3.3,7.8-3.3h4.4c3,0,5.6,1.1,7.8,3.3c2.2,2.2,3.2 4.8,3.2,7.9v6.7h8.8c2.4,0,4.4,.9,6.2,2.6c1.7,1.8,2.6,3.8,2.6,6.3v88.9c0 2.4-.9,4.5-2.6,6.3c-1.7,1.8-3.8,2.6-6.2,2.6H22.1c-2.4,0-4.4-.9-6.2-2.6C14.2,130.8 13.3,128.8,13.3,126.4z M22.1,126.4h96.8V55.2H22.1V126.4z M39.7,41.9c0,.6,.2,1.2 .6,1.6c.4,.4,.9,.6,1.6,.6h4.4c.6,0,1.2-.2,1.6-.6c.4-.4 .6-.9,.6-1.6v-20c0-.6-.2-1.2-.6-1.6c-.4-.4-.9-.6-1.6-.6h-4.4c-.6,0-1.2,.2-1.6 .6c-.4,.4-.6,1-.6,1.6V41.9z M92.5,41.9c0,.6,.2,1.2,.6,1.6c.4,.4,.9,.6 1.6,.6h4.4c.6,0,1.2-.2,1.6-.6c.4-.4 .6-.9,.6-1.6v-20c0-.6-.2-1.2-.6-1.6c-.4-.4-.9-.6-1.6-.6h-4.4c-.6 0-1.2,.2-1.6,.6c-.4,.4-.6,1-.6,1.6V41.9z"
     id="path2" />
  <g
     aria-label="G"
     transform="scale(0.994456,1.0055749)"
     id="text7030"
     style="font-size:81.6569px;font-family:'Linux Libertine Display G';-inkscape-font-specification:'Linux Libertine Display G';fill:#ffffff;stroke:#000000;stroke-width:4.307">
    <g
       id="path918">
      <path
         style="color:#000000;-inkscape-font-specification:Ultra;stroke:none;-inkscape-stroke:none"
         d="m 86.44293,119.60218 -1.315761,-3.98715 q -2.511906,2.27267 -6.937646,3.98715 -4.385869,1.71448 -10.12737,1.71448 -6.459188,0 -12.200689,-1.75435 -5.7415,-1.75435 -10.047626,-5.50227 -4.266254,-3.74793 -6.77816,-9.60904 -2.472035,-5.900989 -2.472035,-14.154396 0,-8.253407 2.631521,-14.114522 2.671393,-5.900987 6.977518,-9.648911 4.345997,-3.747924 9.808397,-5.502272 5.4624,-1.754347 11.203901,-1.754347 3.349208,0 6.020601,0.51833 2.711264,0.51833 4.744712,1.31576 2.033449,0.757559 3.428952,1.634733 1.395504,0.837302 2.272678,1.395504 V 60.871413 H 96.809528 V 82.601398 H 82.854492 q -0.159486,-4.226382 -2.551778,-6.818032 -2.352421,-2.631521 -6.578803,-2.631521 -2.153063,0 -4.027025,0.797431 -1.873962,0.757559 -3.309337,2.711264 -1.435375,1.953705 -2.272677,5.263042 -0.797431,3.309337 -0.797431,8.373022 0,4.824456 0.51833,8.093921 0.558201,3.229595 1.674604,5.263045 1.156275,1.99357 2.910622,2.91062 1.754348,0.87717 4.226383,0.87717 0.558201,0 1.395503,-0.11961 0.877174,-0.11962 1.634733,-0.39872 0.797431,-0.31897 1.355632,-0.79743 0.598073,-0.47846 0.598073,-1.31576 v -2.19293 q 0,-1.87396 -1.275889,-2.830881 -1.275889,-0.996788 -4.784584,-0.996788 V 85.631635 h 33.651572 v 13.157606 q -3.50869,0 -5.02381,0.956916 -1.51512,0.917043 -1.51512,3.508693 v 16.34733 z"
         id="path923" />
      <path
         style="color:#000000;-inkscape-font-specification:Ultra;fill:#000000;stroke:none;-inkscape-stroke:none"
         d="m 67.185547,57.123047 c -4.047001,0 -8.012541,0.620688 -11.863281,1.857422 -3.908375,1.255244 -7.447243,3.240376 -10.556641,5.921875 l -0.0039,0.0039 -0.002,0.002 c -3.126583,2.721285 -5.637772,6.21274 -7.527344,10.386719 v 0.002 l -0.002,0.0039 c -1.909049,4.251972 -2.820313,9.264954 -2.820313,14.996094 0,5.717269 0.852402,10.722325 2.638672,14.986325 l 0.0039,0.008 0.0039,0.008 c 1.78302,4.16038 4.231048,7.65124 7.335937,10.3789 l 0.0039,0.004 0.0039,0.002 c 3.102758,2.70055 6.738392,4.68667 10.832031,5.9375 4.043497,1.23552 8.32899,1.84961 12.830078,1.84961 4.039681,0 7.684975,-0.60381 10.904297,-1.86132 1.924561,-0.74556 3.550308,-1.61376 5.029297,-2.55274 l 0.890625,2.69922 h 1.55664 14.394531 v -18.50195 c 0,-1.30811 0.23529,-1.51998 0.47656,-1.66602 l 0.0176,-0.01 0.0156,-0.0117 c 0.37552,-0.23717 1.73164,-0.62305 3.875,-0.62305 H 107.375 V 83.478516 H 98.962891 V 58.71875 H 81.498047 v 1.710937 c -0.863607,-0.466177 -1.718995,-0.9329 -2.777344,-1.328125 -1.505695,-0.58926 -3.203895,-1.056056 -5.105469,-1.419921 -1.946131,-0.377608 -4.085791,-0.558594 -6.429687,-0.558594 z m 0,4.30664 c 2.12171,0 3.993652,0.165018 5.609375,0.478516 l 0.0039,0.002 h 0.002 c 1.704977,0.325952 3.162863,0.734326 4.363281,1.205078 l 0.01758,0.0078 0.01758,0.0059 c 1.251846,0.466374 2.265384,0.956824 3.033203,1.439453 l 0.01953,0.01172 0.01953,0.01172 c 0.91999,0.551993 1.664765,1.008969 2.22461,1.365234 l 3.308593,2.107422 V 63.025391 H 94.65625 V 80.447266 H 84.607422 c -0.415062,-2.32358 -1.201693,-4.470357 -2.716797,-6.115235 -1.994969,-2.220263 -4.910142,-3.333984 -8.166016,-3.333984 -1.69064,0 -3.327026,0.319093 -4.841797,0.958984 -1.665078,0.675133 -3.089275,1.874443 -4.230468,3.427735 -1.182125,1.609003 -2.019743,3.617557 -2.625,6.009765 l -0.0039,0.01172 -0.002,0.01367 c -0.590218,2.449405 -0.857421,5.388122 -0.857422,8.876953 0,3.293423 0.17372,6.090209 0.544922,8.431641 l 0.002,0.01367 0.002,0.01563 c 0.40025,2.315738 1.007291,4.287138 1.910156,5.931638 l 0.01172,0.0234 0.01367,0.0215 c 0.936102,1.61396 2.210199,2.9201 3.775391,3.73828 l 0.01758,0.01 0.01563,0.008 c 1.531446,0.76572 3.286718,1.10547 5.189453,1.10547 0.521702,0 1.069219,-0.0527 1.6875,-0.14062 l 0.0059,-0.002 c 0.722497,-0.099 1.419542,-0.2657 2.082031,-0.50977 l 0.02734,-0.01 0.02734,-0.0117 c 0.701174,-0.28047 1.350745,-0.65819 1.919922,-1.13868 0.863746,-0.7046 1.388672,-1.91091 1.388672,-2.97265 v -2.19336 c 0,-1.72958 -0.743702,-3.490376 -2.121094,-4.535159 -1.094309,-0.849026 -2.44311,-1.141282 -3.939453,-1.285156 v -9.011719 h 29.343751 v 9.009766 c -1.50648,0.143721 -2.87259,0.419095 -3.994141,1.121094 -1.769237,1.079276 -2.544922,3.195944 -2.544922,5.337894 v 14.19531 H 88 l -1.865234,-5.65039 -2.453125,2.21875 c -1.40779,1.27371 -3.489947,2.49939 -6.269532,3.57617 l -0.0039,0.002 h -0.002 c -2.627131,1.02697 -5.73044,1.56836 -9.34375,1.56836 -4.111154,0 -7.960436,-0.55849 -11.572266,-1.66211 -3.56076,-1.08801 -6.621494,-2.76869 -9.259765,-5.06445 -6.87e-4,-6e-4 -0.0013,-0.001 -0.002,-0.002 -2.579202,-2.26758 -4.646292,-5.1774 -6.210938,-8.82617 -1.507321,-3.60235 -2.300781,-8.029654 -2.300781,-13.312505 0,-5.273392 0.843717,-9.669582 2.443359,-13.232422 1.671607,-3.690319 3.812952,-6.629874 6.425781,-8.904297 3.57e-4,-3.1e-4 -3.56e-4,-0.0016 0,-0.002 2.683339,-2.312383 5.681069,-3.993301 9.052735,-5.076172 3.432452,-1.102393 6.938549,-1.652344 10.546875,-1.652344 z m 6.539062,13.875 c 2.370633,0 3.831449,0.637458 4.972657,1.914063 l 0.01172,0.01172 0.01172,0.01367 c 1.215302,1.316577 1.890773,3.008793 1.982422,5.4375 l 0.0293,0.796875 H 69.417969 v 17.464844 h 2.152343 c 2.135199,0 3.363077,0.46413 3.458985,0.53906 l 0.01758,0.0137 0.01563,0.0137 c 0.310785,0.23309 0.416016,0.34685 0.416016,1.10742 v 1.96094 c -0.151525,0.11147 -0.316708,0.22485 -0.578125,0.33203 -0.338449,0.12216 -0.716075,0.21838 -1.148438,0.27734 l -0.0059,0.002 h -0.0078 c -0.491879,0.0703 -0.873478,0.0977 -1.091797,0.0977 -1.384963,0 -2.436307,-0.24499 -3.242187,-0.64453 -0.760813,-0.40144 -1.416228,-1.03128 -2.013672,-2.05274 -0.579305,-1.06226 -1.085799,-2.58215 -1.427734,-4.550778 -0.318823,-2.016347 -0.492188,-4.60852 -0.492188,-7.742187 0,-3.25785 0.26464,-5.895291 0.736328,-7.857422 0.510694,-2.012563 1.186145,-3.510471 1.916016,-4.503906 0.770793,-1.049136 1.550798,-1.654678 2.380859,-1.990235 l 0.01758,-0.0059 0.01953,-0.0078 C 71.5169,75.51637 72.5551,75.304688 73.724609,75.304687 Z"
         id="path925" />
    </g>
  </g>
</svg>
